<svg width="178" height="49" viewBox="0 0 178 49" fill="none" xmlns="http://www.w3.org/2000/svg">
<path fill-rule="evenodd" clip-rule="evenodd" d="M24.182 0L0 24.3587L24.182 49L48.9032 24.1652L24.182 0ZM25.082 2.91635L46.3278 23.8478L29.9124 19.4066L25.082 2.91635ZM3.26443 22.9468L15.4485 15.7148L23.1774 2.90875L3.26443 22.9468ZM19.7942 29.9628L32.0069 33.1706L24.188 46.3592L19.7942 29.9628ZM23.5041 46.3278L3.12652 25.5847L19.0675 29.7719L23.5041 46.3278ZM23.7987 47.4275L23.7262 47.5003L23.8184 47.5006L23.7987 47.4275ZM46.3004 24.4122L33.4079 31.787L30.1279 20.1204L46.3004 24.4122ZM28.6632 19.7317L32.0702 31.8498L19.4086 28.524L16.1636 16.4147L28.6632 19.7317ZM44.2225 27.1441L26.7683 44.6009L33.3427 33.4292L44.2225 27.1441ZM2.44692 24.0763L18.6918 28.3425L15.5375 16.435L2.44692 24.0763ZM28.4871 19.026L23.9126 2.83956L16.2026 15.7571L28.4871 19.026Z" fill="url(#paint0_linear_1_7)"/>
<path d="M67.144 13.536V17.92H61.192V36H55.72V17.92H49.768V13.536H67.144ZM80.8663 17.952C82.9143 17.952 84.5569 18.6347 85.7943 20C87.0316 21.344 87.6503 23.2 87.6503 25.568V36H82.2103V26.304C82.2103 25.1093 81.9009 24.1813 81.2823 23.52C80.6636 22.8587 79.8316 22.528 78.7863 22.528C77.7409 22.528 76.9089 22.8587 76.2903 23.52C75.6716 24.1813 75.3623 25.1093 75.3623 26.304V36H69.8903V12.32H75.3623V20.544C75.9169 19.7547 76.6743 19.1253 77.6343 18.656C78.5943 18.1867 79.6716 17.952 80.8663 17.952ZM96.9248 21.12C97.5648 20.1387 98.3648 19.3707 99.3248 18.816C100.285 18.24 101.351 17.952 102.525 17.952V23.744H101.021C99.6554 23.744 98.6314 24.0427 97.9488 24.64C97.2661 25.216 96.9248 26.24 96.9248 27.712V36H91.4528V18.144H96.9248V21.12ZM107.892 16.288C106.932 16.288 106.143 16.0107 105.524 15.456C104.927 14.88 104.628 14.176 104.628 13.344C104.628 12.4907 104.927 11.7867 105.524 11.232C106.143 10.656 106.932 10.368 107.892 10.368C108.831 10.368 109.599 10.656 110.196 11.232C110.815 11.7867 111.124 12.4907 111.124 13.344C111.124 14.176 110.815 14.88 110.196 15.456C109.599 16.0107 108.831 16.288 107.892 16.288ZM110.612 18.144V36H105.14V18.144H110.612ZM123.538 22.688H120.594V36H115.122V22.688H113.138V18.144H115.122V17.632C115.122 15.4347 115.751 13.7707 117.01 12.64C118.268 11.488 120.114 10.912 122.546 10.912C122.951 10.912 123.25 10.9227 123.442 10.944V15.584C122.396 15.52 121.66 15.6693 121.234 16.032C120.807 16.3947 120.594 17.0453 120.594 17.984V18.144H123.538V22.688ZM136.061 31.36V36H133.277C131.293 36 129.746 35.52 128.637 34.56C127.528 33.5787 126.973 31.9893 126.973 29.792V22.688H124.797V18.144H126.973V13.792H132.445V18.144H136.029V22.688H132.445V29.856C132.445 30.3893 132.573 30.7733 132.829 31.008C133.085 31.2427 133.512 31.36 134.109 31.36H136.061Z" fill="white"/>
<path d="M144.485 13.536V26.976C144.485 28.32 144.816 29.3547 145.477 30.08C146.138 30.8053 147.109 31.168 148.389 31.168C149.669 31.168 150.65 30.8053 151.333 30.08C152.016 29.3547 152.357 28.32 152.357 26.976V13.536H157.829V26.944C157.829 28.9493 157.402 30.6453 156.549 32.032C155.696 33.4187 154.544 34.464 153.093 35.168C151.664 35.872 150.064 36.224 148.293 36.224C146.522 36.224 144.933 35.8827 143.525 35.2C142.138 34.496 141.04 33.4507 140.229 32.064C139.418 30.656 139.013 28.9493 139.013 26.944V13.536H144.485ZM168.936 36.256C167.378 36.256 165.992 35.9893 164.776 35.456C163.56 34.9227 162.6 34.1973 161.896 33.28C161.192 32.3413 160.797 31.296 160.712 30.144H166.12C166.184 30.7627 166.472 31.264 166.984 31.648C167.496 32.032 168.125 32.224 168.872 32.224C169.554 32.224 170.077 32.096 170.44 31.84C170.824 31.5627 171.016 31.2107 171.016 30.784C171.016 30.272 170.749 29.8987 170.216 29.664C169.682 29.408 168.818 29.1307 167.624 28.832C166.344 28.5333 165.277 28.224 164.424 27.904C163.57 27.5627 162.834 27.04 162.216 26.336C161.597 25.6107 161.288 24.64 161.288 23.424C161.288 22.4 161.565 21.472 162.12 20.64C162.696 19.7867 163.528 19.1147 164.616 18.624C165.725 18.1333 167.037 17.888 168.552 17.888C170.792 17.888 172.552 18.4427 173.832 19.552C175.133 20.6613 175.88 22.1333 176.072 23.968H171.016C170.93 23.3493 170.653 22.8587 170.184 22.496C169.736 22.1333 169.138 21.952 168.392 21.952C167.752 21.952 167.261 22.08 166.92 22.336C166.578 22.5707 166.408 22.9013 166.408 23.328C166.408 23.84 166.674 24.224 167.208 24.48C167.762 24.736 168.616 24.992 169.768 25.248C171.09 25.5893 172.168 25.9307 173 26.272C173.832 26.592 174.557 27.1253 175.176 27.872C175.816 28.5973 176.146 29.5787 176.168 30.816C176.168 31.8613 175.869 32.8 175.272 33.632C174.696 34.4427 173.853 35.0827 172.744 35.552C171.656 36.0213 170.386 36.256 168.936 36.256Z" fill="#5CE1E6"/>
<defs>
<linearGradient id="paint0_linear_1_7" x1="-2.90301" y1="19.8384" x2="20.1565" y2="50.7569" gradientUnits="userSpaceOnUse">
<stop stop-color="#2DF3AE"/>
<stop offset="1" stop-color="#0CCBEC"/>
</linearGradient>
</defs>
</svg>
